# xmcd CD database file
#
# Track frame offsets:
#	150
#	16232
#	34798
#	50733
#	69368
#	89850
#	107813
#	122896
#	140130
#	158055
#	176748
#	194905
#	213906
#
# Disc length: 3297 seconds
#
# Revision: 0
# Processed by: cddbd v1.4PL0 Copyright (c) Steve Scherf et al.
# Submitted via: CDex 1.40Release
#
DISCID=c80cdf0d
DTITLE=Pat Green - Wave on Wave
DYEAR=2003
DGENRE=Country
TTITLE0=Guy Like Me
TTITLE1=Poetry
TTITLE2=Wrapped
TTITLE3=Wave on Wave
TTITLE4=California
TTITLE5=Sing 'Til I stop Crying
TTITLE6=Run
TTITLE7=All The Good Things Fade Away
TTITLE8=I'm Tired
TTITLE9=Eden's Gate
TTITLE10=Barricades
TTITLE11=If I Was The Devil
TTITLE12=Secret Track
EXTD=YEAR: 2003 ID3G: 2
EXTT0=
EXTT1=
EXTT2=
EXTT3=
EXTT4=
EXTT5=
EXTT6=
EXTT7=
EXTT8=
EXTT9=
EXTT10=
EXTT11=
EXTT12=
PLAYORDER=
